<svg width="15" height="18" viewBox="0 0 15 18" fill="none" xmlns="http://www.w3.org/2000/svg">
<g clip-path="url(#clip0_782_6389)">
<path d="M14.916 8.21797C14.836 8.03015 14.744 7.84233 14.6477 7.66297C14.5856 7.55548 14.553 7.43418 14.553 7.31081C14.553 7.18743 14.5856 7.06614 14.6477 6.95865C14.7388 6.78774 14.8221 6.6126 14.9015 6.43605C15.0812 6.03881 15.0128 5.68008 14.7031 5.37206C14.5475 5.21758 14.3814 5.07296 14.2114 4.9335C14.0187 4.77574 13.9552 4.57712 13.9706 4.34094C13.9831 4.12448 13.9922 3.90802 13.9927 3.69156C13.9927 3.30089 13.8044 3.02011 13.4437 2.85858C13.2532 2.77336 13.0565 2.7021 12.8551 2.64541C12.5565 2.56183 12.3759 2.38388 12.2883 2.09323C12.2241 1.8803 12.1421 1.67285 12.0431 1.47296C11.977 1.32693 11.8683 1.20311 11.7305 1.11693C11.5927 1.03076 11.4319 0.986051 11.2682 0.988387C11.0226 0.982283 10.7755 0.988388 10.5304 1.00435C10.4167 1.01636 10.3018 0.999998 10.1964 0.956793C10.091 0.913589 9.99858 0.844965 9.92787 0.757371C9.80168 0.608995 9.67068 0.462498 9.53053 0.32633C9.17413 -0.0187857 8.82785 -0.0812365 8.3655 0.110807C8.21609 0.171748 8.07011 0.240399 7.92819 0.316468C7.64163 0.473296 7.36373 0.472827 7.07476 0.316468C6.89596 0.221487 6.71056 0.138804 6.51993 0.06902C6.17606 -0.0605743 5.85434 -0.00516859 5.58223 0.235708C5.40684 0.395419 5.24212 0.565898 5.08905 0.746103C5.01497 0.838504 4.91777 0.910784 4.80677 0.956008C4.69578 1.00123 4.57473 1.01788 4.45524 1.00435C4.23417 0.986979 4.01119 0.98416 3.78916 0.9851C3.36389 0.9851 3.07396 1.19358 2.91213 1.56921C2.824 1.77347 2.74983 1.98382 2.67759 2.19371C2.64709 2.29207 2.59214 2.38157 2.51761 2.45423C2.44308 2.52689 2.35128 2.58047 2.25039 2.6102C2.04041 2.67922 1.82897 2.74636 1.62429 2.82994C1.22647 2.99241 1.00589 3.28117 1.00926 3.71222C1.00926 3.9052 1.00926 4.09912 1.03045 4.29117C1.05838 4.56914 0.978437 4.7917 0.751595 4.97295C0.570007 5.11706 0.399535 5.274 0.24156 5.44249C-0.00502838 5.70778 -0.0652287 6.02097 0.0720325 6.35622C0.16065 6.57315 0.264679 6.78445 0.36919 6.99434C0.423483 7.09227 0.451912 7.20184 0.451912 7.31316C0.451912 7.42448 0.423483 7.53404 0.36919 7.63198C0.287315 7.78786 0.209292 7.9461 0.136568 8.10622C-0.0931642 8.60816 -0.0271825 8.94576 0.377377 9.32703C0.506932 9.44865 0.641303 9.5665 0.780491 9.67778C0.98566 9.84118 1.05405 10.0501 1.0343 10.3004C1.01841 10.4929 1.01456 10.6864 1.00974 10.8798C0.999146 11.3404 1.23032 11.6438 1.66041 11.8105C1.86028 11.8879 2.06545 11.9546 2.26917 12.0232C2.36404 12.052 2.4503 12.1029 2.52053 12.1714C2.59075 12.24 2.64283 12.3241 2.67229 12.4166C2.72816 12.5768 2.78739 12.7359 2.84471 12.896C2.97137 13.2496 3.17221 13.5342 3.59218 13.6276C3.56424 13.7037 3.54161 13.7685 3.51656 13.8323C3.13127 14.808 2.7471 15.7839 2.36405 16.7599C2.25184 17.0459 2.37128 17.2098 2.68481 17.1882C2.98968 17.1675 3.29502 17.1384 3.59989 17.0985C3.65138 17.088 3.70485 17.0918 3.75423 17.1095C3.80361 17.1272 3.84691 17.158 3.87922 17.1985C4.13304 17.4713 4.39696 17.7347 4.65704 18.0014H4.83764C4.9094 17.9051 5.00621 17.8178 5.04956 17.7103C5.43999 16.7374 5.82528 15.762 6.20544 14.7841C6.24975 14.6695 6.31332 14.6183 6.43806 14.5798C6.67081 14.5039 6.89641 14.4086 7.11233 14.2948C7.37914 14.1586 7.62814 14.1605 7.89833 14.2948C8.14829 14.4169 8.41848 14.5 8.67325 14.615C8.73153 14.6413 8.7768 14.7207 8.80232 14.7855C9.18039 15.7382 9.55221 16.6933 9.9322 17.6455C9.98036 17.7718 10.0685 17.8845 10.1379 18.0033H10.3541C10.618 17.7319 10.8839 17.4638 11.1444 17.1877C11.1734 17.1518 11.212 17.1244 11.2559 17.1086C11.2999 17.0927 11.3475 17.0891 11.3934 17.098C11.6968 17.1359 12.0019 17.1664 12.3085 17.1896C12.6427 17.2144 12.7598 17.0529 12.6394 16.7458C12.2586 15.7754 11.877 14.8051 11.4946 13.8347C11.4695 13.7708 11.4464 13.706 11.419 13.6299C11.8409 13.536 12.0398 13.2515 12.1664 12.8979C12.2237 12.7383 12.2825 12.5786 12.3388 12.4185C12.3687 12.3262 12.4209 12.2423 12.4912 12.1739C12.5615 12.1056 12.6477 12.0548 12.7424 12.026C12.9746 11.9476 13.2087 11.8724 13.4326 11.7752C13.8006 11.6156 13.9985 11.3339 13.998 10.9343C13.998 10.7357 13.998 10.5356 13.9778 10.338C13.9499 10.0591 14.0298 9.83508 14.2567 9.65525C14.4196 9.52583 14.5746 9.38723 14.7209 9.24017C15.0089 8.94201 15.0764 8.59877 14.916 8.21797ZM4.65174 17.2384C4.46535 17.0407 4.2939 16.8628 4.12918 16.6815C4.08826 16.6311 4.03425 16.5924 3.97276 16.5693C3.91126 16.5461 3.84454 16.5395 3.77953 16.55C3.53872 16.5796 3.29165 16.5942 3.01616 16.6181C3.04217 16.5411 3.05855 16.4829 3.0807 16.427C3.41783 15.5659 3.76412 14.7066 4.0921 13.8445C4.15134 13.6896 4.22984 13.614 4.39648 13.6234C4.527 13.6309 4.65752 13.6346 4.82705 13.6421C4.64548 14.1046 4.47932 14.5291 4.31316 14.9531C4.23177 15.1602 4.14989 15.3673 4.06946 15.5748C3.98036 15.803 4.02612 15.9471 4.20528 16.0091C4.37144 16.0664 4.4904 15.9871 4.5819 15.7556L5.18874 14.2192C5.2056 14.1765 5.22342 14.1347 5.24461 14.0831L5.72045 14.5216L4.65174 17.2384ZM11.9723 16.5571C11.9762 16.5669 11.9723 16.5796 11.9685 16.6144C11.7214 16.5937 11.4734 16.5796 11.2273 16.55C11.1623 16.5393 11.0956 16.5458 11.034 16.5688C10.9725 16.5919 10.9185 16.6306 10.8776 16.681C10.7124 16.8642 10.5405 17.0407 10.3536 17.2384L9.28202 14.515L9.75978 14.0755C9.98229 14.639 10.2014 15.1931 10.4201 15.7471C10.4341 15.7919 10.4526 15.8351 10.4755 15.8762C10.5554 15.9964 10.6638 16.0556 10.8126 15.9974C10.8456 15.9866 10.8759 15.9693 10.9018 15.9467C10.9277 15.9241 10.9486 15.8966 10.9632 15.8658C10.9778 15.835 10.9858 15.8017 10.9867 15.7678C10.9877 15.7339 10.9815 15.7002 10.9686 15.6687C10.8449 15.3335 10.711 15.002 10.5834 14.669C10.4557 14.3361 10.3238 14.006 10.1773 13.6309C10.395 13.6309 10.5732 13.6257 10.7505 13.6351C10.7744 13.6408 10.7968 13.6517 10.8157 13.6671C10.8347 13.6825 10.8497 13.7019 10.8598 13.7239C11.2326 14.6676 11.6033 15.6113 11.9719 16.5547L11.9723 16.5571ZM14.1098 7.79303C14.2061 7.99447 14.3024 8.1959 14.3987 8.3964C14.4907 8.58421 14.4527 8.74949 14.3024 8.88989C14.1714 9.01056 14.0418 9.13358 13.9012 9.24298C13.4957 9.5604 13.3661 9.9736 13.4287 10.4638C13.4466 10.6047 13.4456 10.7455 13.4519 10.8864C13.461 11.093 13.3652 11.2339 13.1672 11.3062C12.9486 11.386 12.728 11.4611 12.5089 11.5409C12.3549 11.5927 12.2149 11.6775 12.0991 11.7892C11.9834 11.9009 11.895 12.0365 11.8404 12.1861C11.7624 12.3885 11.6959 12.5946 11.613 12.7965C11.5076 13.058 11.4098 13.1252 11.1237 13.1191C10.9017 13.1158 10.6802 13.0947 10.4581 13.0881C10.2985 13.0799 10.1391 13.1068 9.99156 13.1667C9.84403 13.2266 9.71215 13.318 9.60566 13.4341C9.45444 13.5933 9.30995 13.7577 9.15487 13.9131C8.95452 14.1136 8.83459 14.1366 8.57693 14.0272C8.3679 13.9389 8.16466 13.8394 7.95708 13.7454C7.81262 13.6791 7.65477 13.6452 7.49509 13.6461C7.33542 13.647 7.17798 13.6827 7.03431 13.7506C6.81613 13.8469 6.60085 13.945 6.38123 14.0431C6.19436 14.1277 6.02965 14.0901 5.88998 13.9492C5.77123 13.8337 5.6587 13.7122 5.55285 13.5853C5.21571 13.1627 4.77214 13.0275 4.24381 13.0937C4.11329 13.1102 3.98036 13.1125 3.8484 13.1177C3.63023 13.1261 3.48092 13.0289 3.40531 12.8294C3.3297 12.6298 3.25505 12.435 3.18569 12.2359C3.13091 12.0678 3.03537 11.915 2.90719 11.7905C2.77901 11.666 2.62194 11.5735 2.4493 11.5207C2.25665 11.4555 2.064 11.3883 1.87136 11.3221C1.645 11.2437 1.53422 11.0911 1.55108 10.8526C1.56553 10.6422 1.57709 10.43 1.58431 10.2215C1.59456 10.0571 1.56593 9.89259 1.50063 9.74068C1.43533 9.58877 1.3351 9.45351 1.20769 9.34535C1.06079 9.21575 0.910528 9.08944 0.767968 8.95562C0.519454 8.7232 0.500189 8.62694 0.638413 8.3208C0.728476 8.12312 0.831063 7.93014 0.917754 7.73199C0.978824 7.60088 1.01042 7.45856 1.01042 7.31457C1.01042 7.17057 0.978824 7.02825 0.917754 6.89714C0.817577 6.67223 0.710175 6.45013 0.602774 6.22851C0.511266 6.04069 0.549315 5.87541 0.702469 5.73549C0.838285 5.61153 0.973138 5.48569 1.11714 5.37065C1.50822 5.05934 1.63248 4.65506 1.57661 4.17988C1.55927 4.03479 1.55879 3.88783 1.55156 3.7418C1.54097 3.53379 1.64162 3.39433 1.83716 3.32202C2.0327 3.24971 2.23016 3.18116 2.42859 3.11496C2.61028 3.06075 2.77554 2.96391 2.9099 2.83293C3.04425 2.70194 3.14358 2.54082 3.19918 2.36369C3.24734 2.22282 3.2955 2.08712 3.34655 1.95002C3.49586 1.55184 3.55606 1.5124 4.06416 1.5185C4.14074 1.52414 4.29052 1.53682 4.44031 1.54621C4.84246 1.57109 5.18344 1.44948 5.45171 1.1485C5.58993 0.994023 5.73393 0.844708 5.87649 0.693984C6.01905 0.54326 6.19485 0.497712 6.39616 0.592091C6.59748 0.686469 6.80891 0.779909 7.01504 0.873818C7.16664 0.946146 7.33318 0.983747 7.50196 0.983747C7.67073 0.983747 7.83727 0.946146 7.98887 0.873818C8.19597 0.781787 8.4021 0.687878 8.60727 0.592091C8.8081 0.498182 8.97956 0.536215 9.12742 0.691634C9.25794 0.828741 9.39134 0.964439 9.51271 1.10812C9.82721 1.47624 10.2318 1.59128 10.7062 1.53681C10.8608 1.51944 11.0178 1.5232 11.1733 1.51615C11.3799 1.50629 11.5187 1.59926 11.5909 1.78427C11.6631 1.96927 11.7354 2.16741 11.8033 2.36134C11.9377 2.75059 12.2074 3.00133 12.6052 3.12857C12.7815 3.18492 12.9553 3.24925 13.1306 3.30841C13.3589 3.38541 13.4678 3.53802 13.4523 3.77795C13.4379 4.00615 13.4225 4.23388 13.4201 4.46208C13.4152 4.609 13.4427 4.75524 13.5009 4.89086C13.5591 5.02648 13.6465 5.14831 13.7572 5.2481C13.9017 5.38051 14.052 5.50635 14.196 5.63876C14.4975 5.91626 14.5143 6.00547 14.3405 6.37501C14.2672 6.52855 14.1883 6.67974 14.1146 6.83281C14.0386 6.98188 13.9987 7.14593 13.9978 7.31238C13.997 7.47882 14.0353 7.64325 14.1098 7.79303Z" fill="#BABABA" stroke="#BABABA" stroke-width="0.25"/>
<path d="M11.2028 3.07786C11.2067 3.17177 11.1662 3.31263 11.0944 3.35959C11.0227 3.40654 10.871 3.39434 10.7862 3.3502C10.6075 3.25629 10.4553 3.11825 10.2834 3.01213C7.16829 1.09122 3.03168 2.85859 2.37619 6.39614C2.10215 7.8738 2.44699 9.21622 3.3717 10.4173C3.39337 10.4455 3.41552 10.4727 3.43575 10.5018C3.53689 10.6469 3.51955 10.7986 3.39289 10.8906C3.36421 10.9124 3.33121 10.9281 3.29597 10.9367C3.26073 10.9454 3.22403 10.9468 3.18821 10.9409C3.15238 10.935 3.11821 10.9219 3.08786 10.9024C3.05751 10.8829 3.03165 10.8575 3.01193 10.8277C2.77642 10.4896 2.52405 10.1572 2.33766 9.7947C0.688121 6.59194 2.58473 2.65762 6.16701 1.84859C6.60047 1.74999 7.05463 1.71947 7.28003 1.68801C8.82121 1.70773 10.0026 2.09511 11.0434 2.88347C11.1099 2.93324 11.1999 3.01119 11.2028 3.07786Z" fill="#BABABA" stroke="#BABABA" stroke-width="0.25"/>
<path d="M8.82814 12.7777C7.05434 13.1867 5.42599 12.8186 3.96765 11.7504C3.90765 11.7117 3.85622 11.6618 3.81642 11.6034C3.78282 11.5537 3.76915 11.4937 3.77804 11.4348C3.78692 11.3759 3.81772 11.3223 3.86458 11.2841C3.97776 11.185 4.10105 11.1939 4.22676 11.2752C4.51139 11.4588 4.78495 11.664 5.08644 11.817C8.21167 13.406 11.9924 11.6015 12.6257 8.22173C12.683 7.91793 12.7013 7.6071 12.722 7.45074C12.7013 6.1562 12.3502 5.12602 11.6379 4.21604C11.6196 4.19303 11.6008 4.16909 11.5835 4.14608C11.4693 3.99207 11.4766 3.83759 11.6023 3.74133C11.728 3.64508 11.8912 3.6709 12.0107 3.81693C12.4606 4.35915 12.7989 4.98093 13.0071 5.64815C13.9843 8.77579 12.093 12.0232 8.82814 12.7777Z" fill="#BABABA" stroke="#BABABA" stroke-width="0.25"/>
<path d="M10.116 7.94517C10.116 8.10669 10.0871 8.25366 9.90453 8.31047C9.722 8.36729 9.61557 8.2546 9.52213 8.12265C9.35357 7.88413 9.185 7.647 9.01499 7.40895L8.97935 7.41881C8.97935 7.62071 8.97935 7.82215 8.97935 8.02405C8.97935 8.22595 8.87917 8.34099 8.70338 8.33771C8.53722 8.33442 8.43993 8.22408 8.43945 8.02921C8.43945 7.5376 8.43945 7.04599 8.43945 6.55438C8.43945 6.41023 8.48424 6.30176 8.6321 6.25621C8.77996 6.21067 8.88399 6.28157 8.96538 6.39708C9.14822 6.66499 9.34548 6.92329 9.55633 7.17089C9.55633 6.96288 9.55633 6.7544 9.55633 6.54639C9.55633 6.35857 9.6618 6.2379 9.8217 6.23555C9.9816 6.23321 10.0919 6.35294 10.0948 6.54029C10.1028 7.00858 10.1099 7.47687 10.116 7.94517Z" fill="#BABABA"/>
<path d="M4.44028 7.26903C4.4122 7.23351 4.39359 7.19176 4.38611 7.14751C4.37863 7.10326 4.38251 7.0579 4.39741 7.01547C4.48796 6.65768 4.27268 6.31914 3.8999 6.25763C3.6983 6.22935 3.49403 6.22384 3.29114 6.24119C3.12787 6.25152 3.03588 6.35999 3.03492 6.52574C3.03492 6.77694 3.03492 7.02862 3.03492 7.27983C3.03492 7.53103 3.03106 7.79633 3.03492 8.05129C3.03829 8.23535 3.13654 8.33302 3.32389 8.33865C3.51124 8.34429 3.6957 8.33865 3.88112 8.3363C4.00804 8.33744 4.13263 8.303 4.24005 8.23707C4.34746 8.17114 4.43318 8.0765 4.487 7.96442C4.5495 7.85666 4.57837 7.73346 4.57007 7.60993C4.56177 7.4864 4.51666 7.36792 4.44028 7.26903ZM3.58878 6.76755C3.6851 6.78352 3.76842 6.79432 3.84885 6.81451C3.86049 6.84467 3.86117 6.87782 3.85078 6.90842C3.77468 6.94035 3.69377 6.96054 3.58733 6.99293L3.58878 6.76755ZM3.98419 7.73294C3.85498 7.77642 3.72307 7.81187 3.58926 7.83906V7.46342C3.72236 7.48935 3.85363 7.52354 3.98226 7.56578C4.00393 7.57564 4.0049 7.72543 3.98419 7.73341V7.73294Z" fill="#BABABA"/>
<path d="M6.14 7.87708C6.04368 7.76158 5.93772 7.65076 5.82888 7.52962L5.91364 7.47046C6.15734 7.29626 6.27967 7.06994 6.20936 6.77271C6.13663 6.46469 5.92039 6.29378 5.60926 6.24729C5.46612 6.2324 5.322 6.22832 5.17821 6.23508C4.90417 6.23508 4.80785 6.329 4.80688 6.59288C4.80688 7.06242 4.80688 7.52915 4.80688 7.99682C4.80546 8.04418 4.81031 8.09153 4.82133 8.13768C4.83255 8.19912 4.8673 8.2541 4.91854 8.2915C4.96978 8.3289 5.03368 8.34592 5.0973 8.33911C5.15828 8.34072 5.21769 8.32011 5.26391 8.2813C5.31013 8.24248 5.33985 8.18826 5.34726 8.12923C5.36315 8.04988 5.36363 7.96771 5.37519 7.84281C5.51005 7.99071 5.616 8.11373 5.73111 8.23253C5.85103 8.35837 6.01526 8.37668 6.13085 8.2823C6.25848 8.17618 6.26522 8.02405 6.14 7.87708ZM5.65838 6.96382C5.56572 7.01491 5.4691 7.05887 5.36941 7.09529V6.76661C5.4591 6.77785 5.54737 6.79799 5.63286 6.82671C5.66031 6.83939 5.67572 6.95255 5.65838 6.96382Z" fill="#BABABA"/>
<path d="M11.9022 6.73984C11.7163 6.3581 11.3787 6.23133 10.9963 6.26185C10.886 6.26185 10.808 6.26185 10.7295 6.26185C10.5171 6.26607 10.415 6.35576 10.4136 6.55813C10.4107 7.0499 10.4121 7.54167 10.4179 8.03344C10.4179 8.2175 10.5181 8.31517 10.7069 8.32221C10.8809 8.32581 11.055 8.32048 11.2285 8.30625C11.3461 8.2987 11.4604 8.26451 11.5621 8.2064C11.6638 8.14828 11.7503 8.06784 11.8146 7.97146C12.0862 7.58127 12.1069 7.1615 11.9022 6.73984ZM11.4009 7.61649C11.3137 7.78975 11.1524 7.7935 10.9674 7.77144V6.7976C11.136 6.77976 11.2954 6.78023 11.3864 6.93283C11.5198 7.15399 11.516 7.38829 11.4009 7.61649Z" fill="#BABABA"/>
<path d="M8.25077 8.07617C8.24625 8.05345 8.2403 8.03103 8.23295 8.00902C8.02971 7.47985 7.83369 6.94738 7.61311 6.42431C7.57698 6.33932 7.43876 6.26138 7.33666 6.24447C7.19699 6.22146 7.09199 6.32054 7.03998 6.45342C6.84444 6.95442 6.64794 7.45543 6.45674 7.95596C6.43507 8.01325 6.41291 8.10011 6.44085 8.13815C6.49768 8.21609 6.57955 8.30108 6.66817 8.32597C6.80495 8.36588 6.90416 8.27901 6.96051 8.1527C6.99037 8.08509 7.02312 7.97146 7.06695 7.96488C7.23851 7.93906 7.41313 7.93906 7.58469 7.96488C7.64296 7.97475 7.68101 8.10575 7.72436 8.18416C7.79275 8.31094 7.90882 8.37198 8.03596 8.32268C8.13229 8.28511 8.20116 8.18182 8.28207 8.10998L8.25077 8.07617ZM7.16616 7.3249L7.31643 6.70416L7.56205 7.3249H7.16616Z" fill="#BABABA"/>
</g>
<defs>
<clipPath id="clip0_782_6389">
<rect width="15" height="18" fill="white"/>
</clipPath>
</defs>
</svg>
