<svg width="15" height="15" viewBox="0 0 15 15" fill="none" xmlns="http://www.w3.org/2000/svg">
<path fill-rule="evenodd" clip-rule="evenodd" d="M7.5 14.375C3.70304 14.375 0.625 11.297 0.625 7.5C0.625 3.70304 3.70304 0.625 7.5 0.625C11.297 0.625 14.375 3.70304 14.375 7.5C14.375 11.297 11.297 14.375 7.5 14.375ZM12.1247 10.7029C12.7554 9.79395 13.125 8.69014 13.125 7.5C13.125 4.3934 10.6066 1.875 7.5 1.875C4.3934 1.875 1.875 4.3934 1.875 7.5C1.875 8.69014 2.24461 9.79395 2.87532 10.7029C3.57872 9.77379 5.23163 9.375 7.5 9.375C9.76837 9.375 11.4213 9.77379 12.1247 10.7029ZM11.2279 11.7124C11.045 11.0546 9.73086 10.625 7.5 10.625C5.26914 10.625 3.955 11.0546 3.77207 11.7124C4.76456 12.5914 6.06996 13.125 7.5 13.125C8.93004 13.125 10.2354 12.5914 11.2279 11.7124ZM7.5 9.375C6.10054 9.375 5 8.39211 5 6.25C5 4.84735 5.98694 3.75 7.5 3.75C9.00887 3.75 10 4.95099 10 6.375C10 8.42476 8.8863 9.375 7.5 9.375ZM6.25 6.25C6.25 7.66829 6.76138 8.125 7.5 8.125C8.23607 8.125 8.75 7.6865 8.75 6.375C8.75 5.59401 8.25979 5 7.5 5C6.70859 5 6.25 5.50989 6.25 6.25Z" fill="#BABABA"/>
</svg>
