<svg width="15" height="16" viewBox="0 0 15 16" fill="none" xmlns="http://www.w3.org/2000/svg">
<g clip-path="url(#clip0_782_6380)">
<path d="M4.07812 -3.8147e-06V7.02608H10.933V-3.8147e-06H4.07812ZM9.77467 5.70515H5.23645V1.25575H6.32492V3.79765L7.50847 2.62446C7.85383 2.96121 8.18561 3.27622 8.64739 3.73246V1.26008H9.77467V5.70515Z" fill="#5541D7"/>
<path d="M0 8.46866V15.4839H6.88979V8.46866H0ZM5.72759 14.1738H1.16803V9.73309H2.24098V12.2576L3.44199 11.0996L4.56345 12.2055V9.73961H5.72759V14.1738Z" fill="#5541D7"/>
<path d="M8.14258 8.4426V15.4708H14.9994V8.4426H8.14258ZM13.8663 14.1608H9.32612V9.7483H10.3991V12.2315L11.6001 11.0909L12.7332 12.2272V9.75265H13.8663V14.1608Z" fill="#5541D7"/>
</g>
<defs>
<clipPath id="clip0_782_6380">
<rect width="15" height="15.4839" fill="white"/>
</clipPath>
</defs>
</svg>
