<svg width="16" height="18" viewBox="0 0 16 18" fill="none" xmlns="http://www.w3.org/2000/svg">
<path d="M8 16.5C7.38636 16.5 6.80014 16.2524 5.6277 15.7571C2.70923 14.5243 1.25 13.9078 1.25 12.871C1.25 12.5806 1.25 7.54839 1.25 5.25M8 16.5C8.61364 16.5 9.19986 16.2524 10.3723 15.7571C13.2908 14.5243 14.75 13.9078 14.75 12.871L14.75 5.25M8 16.5L8 8.51613" stroke="#BABABA" stroke-width="1.5" stroke-linecap="round" stroke-linejoin="round"/>
<path d="M5.24444 7.26854L3.05354 6.20838C1.85118 5.62658 1.25 5.33567 1.25 4.875C1.25 4.41433 1.85118 4.12342 3.05354 3.54162L5.24444 2.48146C6.59663 1.82715 7.27272 1.5 8 1.5C8.72728 1.5 9.40337 1.82715 10.7556 2.48146L12.9465 3.54161C14.1488 4.12342 14.75 4.41433 14.75 4.875C14.75 5.33567 14.1488 5.62658 12.9465 6.20838L10.7556 7.26854C9.40337 7.92285 8.72728 8.25 8 8.25C7.27272 8.25 6.59663 7.92285 5.24444 7.26854Z" stroke="#BABABA" stroke-width="1.5" stroke-linecap="round" stroke-linejoin="round"/>
<path d="M3.5 9L5 9.75" stroke="#BABABA" stroke-width="1.5" stroke-linecap="round" stroke-linejoin="round"/>
<path d="M11.75 3L4.25 6.75" stroke="#BABABA" stroke-width="1.5" stroke-linecap="round" stroke-linejoin="round"/>
</svg>
