<svg width="13" height="15" viewBox="0 0 13 15" fill="none" xmlns="http://www.w3.org/2000/svg">
<path fill-rule="evenodd" clip-rule="evenodd" d="M0.469252 1.8149e-07C0.407613 -5.40476e-05 0.346569 0.012045 0.289613 0.035605C0.232656 0.0591649 0.180904 0.0937234 0.13732 0.137303C0.0937349 0.180882 0.0591722 0.232627 0.0356094 0.289577C0.0120465 0.346526 -5.40826e-05 0.407563 1.81701e-07 0.469194V13.5933C6.14206e-06 13.6549 0.0121511 13.7159 0.0357409 13.7728C0.0593308 13.8297 0.0939031 13.8814 0.137482 13.9249C0.181061 13.9685 0.232792 14.003 0.289719 14.0265C0.346645 14.05 0.407652 14.0621 0.469252 14.0621H6.56311C6.62467 14.0621 6.68563 14.0499 6.74251 14.0264C6.79939 14.0028 6.85107 13.9683 6.8946 13.9248C6.93813 13.8812 6.97266 13.8296 6.99622 13.7727C7.01978 13.7158 7.0319 13.6549 7.0319 13.5933C7.0319 13.5318 7.01978 13.4708 6.99622 13.4139C6.97266 13.3571 6.93813 13.3054 6.8946 13.2619C6.85107 13.2184 6.79939 13.1838 6.74251 13.1603C6.68563 13.1367 6.62467 13.1246 6.56311 13.1246H0.938045V0.937929H9.37679V8.90643C9.37667 9.03051 9.42575 9.14958 9.51328 9.23753C9.60082 9.32548 9.71966 9.37514 9.84375 9.37562C9.90535 9.37562 9.96635 9.36348 10.0233 9.3399C10.0802 9.31632 10.1319 9.28175 10.1754 9.23817C10.2189 9.1946 10.2535 9.14287 10.277 9.08595C10.3005 9.02903 10.3126 8.96802 10.3125 8.90643V0.469194C10.3126 0.407601 10.3005 0.346602 10.277 0.289683C10.2534 0.232763 10.2189 0.181038 10.1754 0.137465C10.1318 0.0938913 10.0802 0.0593233 10.0232 0.0357364C9.96634 0.0121495 9.90535 6.10427e-06 9.84375 1.8149e-07H0.469252ZM2.33207 2.34414C2.20981 2.34724 2.0936 2.39799 2.00825 2.48556C1.92289 2.57313 1.87513 2.69059 1.87517 2.81287C1.87517 2.87443 1.8873 2.93538 1.91086 2.99225C1.93442 3.04912 1.96895 3.10079 2.01248 3.14432C2.05601 3.18784 2.10769 3.22237 2.16457 3.24593C2.22145 3.26948 2.2824 3.28161 2.34397 3.28161C2.4683 3.28161 2.58754 3.23222 2.67545 3.14432C2.76337 3.05641 2.81276 2.93719 2.81276 2.81287C2.81276 2.68855 2.76337 2.56933 2.67545 2.48142C2.58754 2.39352 2.4683 2.34414 2.34397 2.34414C2.34 2.34408 2.33603 2.34408 2.33207 2.34414ZM3.74989 2.34459C3.68829 2.34453 3.62728 2.35661 3.57035 2.38014C3.51342 2.40367 3.46169 2.43819 3.41811 2.48172C3.37453 2.52525 3.33995 2.57694 3.31637 2.63384C3.29278 2.69074 3.28064 2.75173 3.28064 2.81333C3.28064 2.87492 3.29278 2.93591 3.31637 2.99281C3.33995 3.04971 3.37453 3.1014 3.41811 3.14494C3.46169 3.18847 3.51342 3.22299 3.57035 3.24651C3.62728 3.27004 3.68829 3.28212 3.74989 3.28206H7.96995C8.03151 3.28206 8.09247 3.26994 8.14935 3.24638C8.20623 3.22283 8.2579 3.1883 8.30144 3.14477C8.34497 3.10125 8.3795 3.04957 8.40306 2.9927C8.42662 2.93584 8.43874 2.87488 8.43874 2.81333C8.43874 2.75177 8.42662 2.69082 8.40306 2.63395C8.3795 2.57708 8.34497 2.52541 8.30144 2.48188C8.2579 2.43835 8.20623 2.40383 8.14935 2.38027C8.09247 2.35672 8.03151 2.34459 7.96995 2.34459H3.74989ZM3.74989 4.6869C3.68829 4.68684 3.62728 4.69892 3.57035 4.72244C3.51342 4.74597 3.46169 4.78049 3.41811 4.82402C3.37453 4.86755 3.33995 4.91925 3.31637 4.97615C3.29278 5.03305 3.28064 5.09404 3.28064 5.15563C3.28058 5.21726 3.29268 5.2783 3.31624 5.33526C3.3398 5.39221 3.37436 5.44395 3.41794 5.48753C3.46153 5.53112 3.51328 5.56567 3.57024 5.58923C3.6272 5.61279 3.68825 5.62488 3.74989 5.62482H7.96995C8.03155 5.62482 8.09255 5.61269 8.14945 5.5891C8.20636 5.56552 8.25806 5.53095 8.3016 5.48737C8.34514 5.4438 8.37966 5.39207 8.40319 5.33515C8.42672 5.27823 8.4388 5.21722 8.43874 5.15563C8.43874 5.09408 8.42662 5.03312 8.40306 4.97625C8.3795 4.91938 8.34497 4.86771 8.30144 4.82418C8.2579 4.78066 8.20623 4.74613 8.14935 4.72258C8.09247 4.69902 8.03151 4.6869 7.96995 4.6869H3.74989ZM2.33207 4.68781C2.20981 4.69091 2.0936 4.74166 2.00824 4.82924C1.92289 4.91681 1.87513 5.03427 1.87517 5.15655C1.87517 5.2181 1.8873 5.27905 1.91086 5.33592C1.93442 5.39279 1.96895 5.44447 2.01248 5.48799C2.05601 5.53152 2.10769 5.56605 2.16457 5.5896C2.22145 5.61316 2.2824 5.62528 2.34397 5.62528C2.4683 5.62528 2.58754 5.5759 2.67545 5.48799C2.76337 5.40009 2.81276 5.28086 2.81276 5.15655C2.81276 5.03223 2.76337 4.91301 2.67545 4.8251C2.58754 4.7372 2.4683 4.68781 2.34397 4.68781C2.34 4.68776 2.33603 4.68776 2.33207 4.68781ZM3.74989 7.03103C3.68825 7.03097 3.6272 7.04307 3.57024 7.06662C3.51328 7.09018 3.46153 7.12474 3.41794 7.16832C3.37436 7.2119 3.3398 7.26365 3.31624 7.3206C3.29268 7.37755 3.28058 7.43859 3.28064 7.50022C3.28064 7.56182 3.29278 7.62281 3.31637 7.67971C3.33995 7.73661 3.37453 7.7883 3.41811 7.83183C3.46169 7.87536 3.51342 7.90988 3.57035 7.93341C3.62728 7.95694 3.68829 7.96902 3.74989 7.96896H7.96995C8.03151 7.96896 8.09247 7.95684 8.14935 7.93328C8.20623 7.90972 8.2579 7.8752 8.30144 7.83167C8.34497 7.78815 8.3795 7.73647 8.40306 7.6796C8.42662 7.62273 8.43874 7.56178 8.43874 7.50022C8.4388 7.43863 8.42672 7.37763 8.40319 7.32071C8.37966 7.26378 8.34514 7.21206 8.3016 7.16848C8.25806 7.12491 8.20636 7.09034 8.14945 7.06675C8.09255 7.04317 8.03155 7.03103 7.96995 7.03103H3.74989ZM2.33207 7.0315C2.20981 7.0346 2.0936 7.08536 2.00825 7.17293C1.92289 7.2605 1.87513 7.37795 1.87517 7.50024C1.87517 7.56179 1.8873 7.62274 1.91086 7.67961C1.93442 7.73648 1.96895 7.78816 2.01248 7.83168C2.05601 7.87521 2.10769 7.90973 2.16457 7.93329C2.22145 7.95685 2.2824 7.96897 2.34397 7.96897C2.4683 7.96897 2.58754 7.91959 2.67545 7.83168C2.76337 7.74378 2.81276 7.62455 2.81276 7.50024C2.81276 7.37592 2.76337 7.25669 2.67545 7.16879C2.58754 7.08088 2.4683 7.0315 2.34397 7.0315C2.34 7.03145 2.33603 7.03145 2.33207 7.0315ZM6.09432 8.90644C6.03271 8.90644 5.97172 8.91858 5.91481 8.94217C5.8579 8.96575 5.8062 9.00032 5.76267 9.04389C5.71913 9.08747 5.68461 9.13919 5.66108 9.19612C5.63754 9.25304 5.62546 9.31404 5.62552 9.37564C5.62552 9.43719 5.63765 9.49814 5.66121 9.55501C5.68477 9.61188 5.7193 9.66355 5.76283 9.70708C5.80636 9.75061 5.85804 9.78513 5.91492 9.80869C5.97179 9.83225 6.03275 9.84437 6.09432 9.84437H6.6652L7.51489 13.2386C7.54032 13.34 7.59892 13.43 7.68137 13.4942C7.76382 13.5585 7.8654 13.5934 7.96995 13.5933H11.2506C11.3617 13.5937 11.4693 13.5546 11.5542 13.483C11.6391 13.4114 11.6959 13.312 11.7143 13.2024L12.1813 10.3891C12.1923 10.3221 12.1886 10.2534 12.1705 10.188C12.1523 10.1225 12.1202 10.0618 12.0763 10.01C12.0323 9.95816 11.9777 9.91652 11.916 9.88792C11.8544 9.85933 11.7873 9.84446 11.7194 9.84436H7.63255L7.48696 9.26119C7.46153 9.15979 7.40293 9.0698 7.32048 9.00552C7.23803 8.94124 7.13645 8.90636 7.0319 8.90643L6.09432 8.90644ZM7.86786 10.7818H11.1659L10.8541 12.6559H8.33482L7.86786 10.7818ZM8.19198 14.0625C8.06973 14.0656 7.95352 14.1164 7.86817 14.204C7.78281 14.2915 7.73505 14.409 7.73509 14.5313C7.73509 14.6556 7.78448 14.7748 7.8724 14.8627C7.96032 14.9506 8.07956 15 8.20389 15C8.32822 15 8.44746 14.9506 8.53537 14.8627C8.62329 14.7748 8.67268 14.6556 8.67268 14.5313C8.67268 14.4069 8.62329 14.2877 8.53537 14.1998C8.44746 14.1119 8.32822 14.0625 8.20389 14.0625C8.19992 14.0625 8.19595 14.0625 8.19198 14.0625ZM11.0047 14.0625C10.8825 14.0656 10.7663 14.1164 10.6809 14.204C10.5956 14.2915 10.5478 14.409 10.5479 14.5313C10.5479 14.6556 10.5972 14.7748 10.6852 14.8627C10.7731 14.9506 10.8923 15 11.0166 15C11.141 15 11.2602 14.9506 11.3481 14.8627C11.4361 14.7748 11.4854 14.6556 11.4854 14.5313C11.4854 14.4069 11.4361 14.2877 11.3481 14.1998C11.2602 14.1119 11.141 14.0625 11.0166 14.0625C11.0127 14.0625 11.0087 14.0625 11.0047 14.0625Z" fill="#BABABA"/>
</svg>
