<svg width="16" height="18" viewBox="0 0 16 18" fill="none" xmlns="http://www.w3.org/2000/svg">
<path fill-rule="evenodd" clip-rule="evenodd" d="M14.4227 5.40586C14.2378 5.3765 13.9754 5.37501 13.5455 5.37501H3.5C3.22386 5.37501 3 5.15115 3 4.87501C3 4.59886 3.22386 4.37501 3.5 4.37501L13.5826 4.375C13.9634 4.37496 14.3067 4.37492 14.5795 4.41823C14.8819 4.46625 15.1876 4.58028 15.4035 4.87737C15.6118 5.16395 15.6403 5.48997 15.6191 5.79845C15.599 6.09067 15.5264 6.45116 15.4424 6.86847L15.4359 6.90049C15.1311 8.41463 14.8336 9.82528 14.1384 10.84C13.7794 11.3638 13.3134 11.7873 12.6933 12.075C12.079 12.3601 11.3395 12.5 10.4474 12.5H5C4.72386 12.5 4.5 12.2761 4.5 12C4.5 11.7239 4.72386 11.5 5 11.5H10.4474C11.2382 11.5 11.8248 11.3756 12.2724 11.1679C12.7143 10.9628 13.0461 10.6649 13.3134 10.2747C13.8708 9.46127 14.1396 8.27283 14.4556 6.70313C14.5479 6.24457 14.6064 5.94893 14.6215 5.72979C14.6358 5.5218 14.6024 5.47597 14.5948 5.46558C14.5891 5.45769 14.5845 5.45278 14.5704 5.44562C14.5506 5.43553 14.5081 5.41942 14.4227 5.40586Z" fill="#BABABA" stroke="#BABABA" stroke-width="0.35" stroke-linecap="round"/>
<path fill-rule="evenodd" clip-rule="evenodd" d="M0.375 1.5C0.375 1.22386 0.598858 1 0.875 1H1.57884C2.49657 1 3.29654 1.62459 3.51912 2.51493L3.52143 2.52415L5.48933 11.8973C5.54607 12.1675 5.37299 12.4326 5.10274 12.4893C4.83249 12.5461 4.56741 12.373 4.51067 12.1027L2.54687 2.74917C2.43271 2.30842 2.03485 2 1.57884 2H0.875C0.598858 2 0.375 1.77614 0.375 1.5Z" fill="#BABABA" stroke="#BABABA" stroke-width="0.35" stroke-linecap="round"/>
<path fill-rule="evenodd" clip-rule="evenodd" d="M3 13.9286C3 12.6067 4.03373 11.5 5.35143 11.5H5.66C5.93614 11.5 6.16 11.7239 6.16 12C6.16 12.2761 5.93614 12.5 5.66 12.5H5.35143C4.67866 12.5 4.09422 13.0306 4.01032 13.75H12.125C12.4011 13.75 12.625 13.9739 12.625 14.25C12.625 14.5261 12.4011 14.75 12.125 14.75H3.80857C3.34297 14.75 3 14.3628 3 13.9286Z" fill="#BABABA" stroke="#BABABA" stroke-width="0.35" stroke-linecap="round" stroke-linejoin="round"/>
<path fill-rule="evenodd" clip-rule="evenodd" d="M6.875 14.75C6.52982 14.75 6.25 15.0298 6.25 15.375C6.25 15.7202 6.52982 16 6.875 16C7.22018 16 7.5 15.7202 7.5 15.375C7.5 15.0298 7.22018 14.75 6.875 14.75ZM5.25 15.375C5.25 14.4775 5.97754 13.75 6.875 13.75C7.77246 13.75 8.5 14.4775 8.5 15.375C8.5 16.2725 7.77246 17 6.875 17C5.97754 17 5.25 16.2725 5.25 15.375Z" fill="#BABABA" stroke="#BABABA" stroke-width="0.35"/>
<path fill-rule="evenodd" clip-rule="evenodd" d="M12.125 14.75C11.7798 14.75 11.5 15.0298 11.5 15.375C11.5 15.7202 11.7798 16 12.125 16C12.4702 16 12.75 15.7202 12.75 15.375C12.75 15.0298 12.4702 14.75 12.125 14.75ZM10.5 15.375C10.5 14.4775 11.2275 13.75 12.125 13.75C13.0225 13.75 13.75 14.4775 13.75 15.375C13.75 16.2725 13.0225 17 12.125 17C11.2275 17 10.5 16.2725 10.5 15.375Z" fill="#BABABA" stroke="#BABABA" stroke-width="0.35"/>
</svg>
